<svg xmlns="http://www.w3.org/2000/svg" xmlns:xlink="http://www.w3.org/1999/xlink" width="500" zoomAndPan="magnify" viewBox="0 0 375 374.999991" height="500" preserveAspectRatio="xMidYMid meet" version="1.0"><defs><filter x="0%" y="0%" width="100%" height="100%" id="4df3591217"><feColorMatrix values="0 0 0 0 1 0 0 0 0 1 0 0 0 0 1 0 0 0 1 0" color-interpolation-filters="sRGB"/></filter><g/><mask id="5e25e079a2"><g filter="url(#4df3591217)"><rect x="-37.5" width="450" fill="#000000" y="-37.499999" height="449.999989" fill-opacity="0.28"/></g></mask><clipPath id="4431b6936d"><path d="M 83 312 L 312 312 L 312 368.167969 L 83 368.167969 Z M 83 312 " clip-rule="nonzero"/></clipPath><clipPath id="3c59cad51b"><path d="M 0.441406 96 L 36 96 L 36 265 L 0.441406 265 Z M 0.441406 96 " clip-rule="nonzero"/></clipPath><clipPath id="7d46b1bda7"><path d="M 168 0.667969 L 190 0.667969 L 190 22 L 168 22 Z M 168 0.667969 " clip-rule="nonzero"/></clipPath><clipPath id="e19f694cd5"><rect x="0" width="365" y="0" height="369"/></clipPath><clipPath id="c319292585"><path d="M 169 126 L 334 126 L 334 374 L 169 374 Z M 169 126 " clip-rule="nonzero"/></clipPath><clipPath id="6ef0a977b5"><path d="M 161.800781 277.640625 L 305.882812 120.765625 L 446.183594 249.625 L 302.101562 406.5 Z M 161.800781 277.640625 " clip-rule="nonzero"/></clipPath><clipPath id="df70e93597"><path d="M 161.800781 277.640625 L 305.882812 120.765625 L 446.183594 249.625 L 302.101562 406.5 Z M 161.800781 277.640625 " clip-rule="nonzero"/></clipPath><clipPath id="01c98df3be"><path d="M 3 8 L 263 8 L 263 176 L 3 176 Z M 3 8 " clip-rule="nonzero"/></clipPath><clipPath id="c3a8933b62"><path d="M 154.074219 183.90625 L -3.433594 26.398438 L 137.636719 -114.671875 L 295.144531 42.835938 Z M 154.074219 183.90625 " clip-rule="nonzero"/></clipPath><clipPath id="888590e266"><path d="M 154.074219 183.90625 L -3.433594 26.398438 L 137.636719 -114.671875 L 295.144531 42.835938 Z M 154.074219 183.90625 " clip-rule="nonzero"/></clipPath><clipPath id="cc24da7a89"><path d="M 49 37.820312 L 342 37.820312 L 342 292 L 49 292 Z M 49 37.820312 " clip-rule="nonzero"/></clipPath><clipPath id="199b28b049"><path d="M 274.09375 94 L 365 94 L 365 106.132812 L 274.09375 106.132812 Z M 274.09375 94 " clip-rule="nonzero"/></clipPath><clipPath id="4557937c99"><path d="M 274.09375 94 L 365 94 L 365 106.132812 L 274.09375 106.132812 Z M 274.09375 94 " clip-rule="nonzero"/></clipPath><clipPath id="16a3a102bb"><path d="M 339 88.132812 L 345 88.132812 L 345 94 L 339 94 Z M 339 88.132812 " clip-rule="nonzero"/></clipPath><clipPath id="d57788d9ab"><path d="M 274.09375 90 L 342 90 L 342 103 L 274.09375 103 Z M 274.09375 90 " clip-rule="nonzero"/></clipPath><clipPath id="398cb21aa6"><path d="M 31 337 L 35 337 L 35 341 L 31 341 Z M 31 337 " clip-rule="nonzero"/></clipPath><clipPath id="395849df56"><path d="M 6.535156 352.964844 L 73.953125 288.90625 L 86.351562 301.953125 L 18.933594 366.011719 Z M 6.535156 352.964844 " clip-rule="nonzero"/></clipPath><clipPath id="4dc9d631d0"><path d="M 86.316406 302.359375 L 18.898438 366.417969 L 6.5 353.371094 L 73.917969 289.3125 Z M 86.316406 302.359375 " clip-rule="nonzero"/></clipPath><clipPath id="895006f4f9"><path d="M 32 295 L 79 295 L 79 339 L 32 339 Z M 32 295 " clip-rule="nonzero"/></clipPath><clipPath id="d9a5060737"><path d="M 6.535156 352.964844 L 73.953125 288.90625 L 86.351562 301.953125 L 18.933594 366.011719 Z M 6.535156 352.964844 " clip-rule="nonzero"/></clipPath><clipPath id="cba15ed5b1"><path d="M 86.316406 302.359375 L 18.898438 366.417969 L 6.5 353.371094 L 73.917969 289.3125 Z M 86.316406 302.359375 " clip-rule="nonzero"/></clipPath><clipPath id="207ce9f2e8"><path d="M 14 357 L 19 357 L 19 363 L 14 363 Z M 14 357 " clip-rule="nonzero"/></clipPath><clipPath id="747059c668"><path d="M 6.535156 352.964844 L 73.953125 288.90625 L 86.351562 301.953125 L 18.933594 366.011719 Z M 6.535156 352.964844 " clip-rule="nonzero"/></clipPath><clipPath id="f793083f60"><path d="M 86.316406 302.359375 L 18.898438 366.417969 L 6.5 353.371094 L 73.917969 289.3125 Z M 86.316406 302.359375 " clip-rule="nonzero"/></clipPath><clipPath id="0b41fef211"><path d="M 16 289 L 74 289 L 74 361 L 16 361 Z M 16 289 " clip-rule="nonzero"/></clipPath><clipPath id="bf2f08d572"><path d="M 6.535156 352.964844 L 73.953125 288.90625 L 86.351562 301.953125 L 18.933594 366.011719 Z M 6.535156 352.964844 " clip-rule="nonzero"/></clipPath><clipPath id="68140d9cc0"><path d="M 86.316406 302.359375 L 18.898438 366.417969 L 6.5 353.371094 L 73.917969 289.3125 Z M 86.316406 302.359375 " clip-rule="nonzero"/></clipPath><clipPath id="caa157a6a0"><path d="M 14 357 L 19 357 L 19 363 L 14 363 Z M 14 357 " clip-rule="nonzero"/></clipPath><clipPath id="d011084b4d"><path d="M 6.535156 352.964844 L 73.953125 288.90625 L 86.351562 301.953125 L 18.933594 366.011719 Z M 6.535156 352.964844 " clip-rule="nonzero"/></clipPath><clipPath id="a9aeffcca1"><path d="M 86.316406 302.359375 L 18.898438 366.417969 L 6.5 353.371094 L 73.917969 289.3125 Z M 86.316406 302.359375 " clip-rule="nonzero"/></clipPath><clipPath id="80f66a5ff2"><path d="M 16 289 L 74 289 L 74 361 L 16 361 Z M 16 289 " clip-rule="nonzero"/></clipPath><clipPath id="34b1172fb6"><path d="M 6.535156 352.964844 L 73.953125 288.90625 L 86.351562 301.953125 L 18.933594 366.011719 Z M 6.535156 352.964844 " clip-rule="nonzero"/></clipPath><clipPath id="64c8cdf5b3"><path d="M 86.316406 302.359375 L 18.898438 366.417969 L 6.5 353.371094 L 73.917969 289.3125 Z M 86.316406 302.359375 " clip-rule="nonzero"/></clipPath><clipPath id="25b5c5260f"><path d="M 33 344 L 39 344 L 39 350 L 33 350 Z M 33 344 " clip-rule="nonzero"/></clipPath><clipPath id="29962a07ec"><path d="M 6.535156 352.964844 L 73.953125 288.90625 L 86.351562 301.953125 L 18.933594 366.011719 Z M 6.535156 352.964844 " clip-rule="nonzero"/></clipPath><clipPath id="574b692b42"><path d="M 86.316406 302.359375 L 18.898438 366.417969 L 6.5 353.371094 L 73.917969 289.3125 Z M 86.316406 302.359375 " clip-rule="nonzero"/></clipPath><clipPath id="8a890dd382"><path d="M 35 292 L 77 292 L 77 348 L 35 348 Z M 35 292 " clip-rule="nonzero"/></clipPath><clipPath id="13a8399bde"><path d="M 6.535156 352.964844 L 73.953125 288.90625 L 86.351562 301.953125 L 18.933594 366.011719 Z M 6.535156 352.964844 " clip-rule="nonzero"/></clipPath><clipPath id="0ef3e31fa6"><path d="M 86.316406 302.359375 L 18.898438 366.417969 L 6.5 353.371094 L 73.917969 289.3125 Z M 86.316406 302.359375 " clip-rule="nonzero"/></clipPath></defs><g mask="url(#5e25e079a2)"><g transform="matrix(1, 0, 0, 1, 7, 3)"><g clip-path="url(#e19f694cd5)"><path fill="#a6a6a6" d="M 39.3125 80.664062 C 56.316406 57.851562 78.234375 39.714844 103.023438 27.269531 C 124.234375 16.632812 147.53125 10.171875 171.636719 8.53125 C 171.351562 9.320312 171.195312 10.171875 171.195312 11.058594 C 171.195312 12.203125 171.460938 13.292969 171.921875 14.265625 C 148.589844 15.863281 126.070312 22.109375 105.582031 32.386719 C 81.609375 44.417969 60.398438 61.980469 43.910156 84.09375 Z M 39.3125 80.664062 " fill-opacity="1" fill-rule="nonzero"/><path fill="#000000" d="M 197.382812 5.746094 C 200.972656 6.007812 204.625 6.390625 208.355469 6.886719 C 212.109375 7.398438 215.734375 7.988281 219.222656 8.679688 L 217.019531 19.945312 C 213.523438 19.253906 210.125 18.691406 206.828125 18.246094 C 203.511719 17.796875 200.09375 17.441406 196.582031 17.1875 Z M 197.382812 5.746094 " fill-opacity="1" fill-rule="nonzero"/><path fill="#000000" d="M 214.296875 11.273438 C 224.753906 13.0625 235.027344 15.785156 245 19.390625 C 254.976562 22.992188 264.621094 27.46875 273.808594 32.777344 L 273.84375 32.804688 C 316.824219 57.636719 345.679688 97.527344 357.582031 141.949219 C 369.492188 186.394531 364.449219 235.382812 339.617188 278.382812 C 336.730469 283.378906 333.632812 288.207031 330.320312 292.851562 C 326.996094 297.515625 323.441406 302.027344 319.675781 306.363281 L 316.214844 303.363281 C 319.882812 299.144531 323.34375 294.75 326.582031 290.195312 C 329.84375 285.625 332.867188 280.921875 335.652344 276.101562 C 359.84375 234.203125 364.761719 186.460938 353.148438 143.136719 C 341.542969 99.824219 313.414062 60.933594 271.519531 36.742188 L 271.515625 36.742188 C 262.53125 31.5625 253.144531 27.199219 243.457031 23.695312 C 233.769531 20.199219 223.757812 17.546875 213.53125 15.800781 Z M 214.296875 11.273438 " fill-opacity="1" fill-rule="nonzero"/><g clip-path="url(#4431b6936d)"><path fill="#737373" d="M 311.046875 315.628906 C 294.199219 332.480469 274.335938 345.648438 252.710938 354.601562 C 231.089844 363.558594 207.738281 368.296875 183.910156 368.296875 C 166.023438 368.296875 148.3125 365.617188 131.355469 360.4375 C 114.398438 355.25 98.226562 347.574219 83.386719 337.570312 L 85.953125 333.757812 C 100.433594 343.523438 116.199219 351.015625 132.683594 356.054688 C 149.179688 361.089844 166.433594 363.699219 183.910156 363.699219 C 207.15625 363.699219 229.917969 359.085938 250.96875 350.367188 C 272.011719 341.648438 291.363281 328.820312 307.800781 312.382812 Z M 311.046875 315.628906 " fill-opacity="1" fill-rule="nonzero"/></g><path fill="#d9d9d9" d="M 45.726562 308.851562 C 41.917969 304.472656 38.265625 299.839844 34.785156 294.964844 C 31.351562 290.160156 28.160156 285.207031 25.226562 280.117188 L 35.140625 274.367188 C 37.917969 279.179688 40.910156 283.835938 44.113281 288.320312 C 47.269531 292.734375 50.695312 297.066406 54.390625 301.308594 Z M 45.726562 308.851562 " fill-opacity="1" fill-rule="nonzero"/><g clip-path="url(#3c59cad51b)"><path fill="#000000" d="M 17.28125 264.703125 C 4.941406 237.734375 -0.484375 208.617188 0.878906 179.828125 C 2.242188 151.027344 10.394531 122.542969 25.226562 96.867188 L 35.140625 102.609375 C 21.246094 126.679688 13.597656 153.371094 12.320312 180.363281 C 11.039062 207.367188 16.128906 234.671875 27.691406 259.941406 Z M 17.28125 264.703125 " fill-opacity="1" fill-rule="nonzero"/></g><path fill="#d9d9d9" d="M 289.371094 249.375 C 278.492188 268.222656 263.007812 283.445312 244.800781 293.953125 L 244.792969 293.953125 C 226.585938 304.464844 205.65625 310.273438 183.910156 310.273438 C 150.28125 310.273438 119.828125 296.640625 97.792969 274.605469 C 75.753906 252.566406 62.125 222.121094 62.125 188.492188 C 62.125 154.855469 75.753906 124.410156 97.792969 102.375 C 119.828125 80.335938 150.28125 66.707031 183.910156 66.707031 L 183.910156 69 C 150.914062 69 121.042969 82.375 99.417969 104 C 77.792969 125.621094 64.425781 155.496094 64.425781 188.492188 C 64.425781 221.480469 77.792969 251.359375 99.417969 272.976562 C 121.042969 294.601562 150.914062 307.976562 183.910156 307.976562 C 205.257812 307.976562 225.789062 302.285156 243.65625 291.972656 C 261.523438 281.652344 276.722656 266.714844 287.390625 248.238281 Z M 289.371094 249.375 " fill-opacity="1" fill-rule="nonzero"/><path fill="#a6a6a6" d="M 183.910156 29.367188 C 227.851562 29.367188 267.632812 47.175781 296.429688 75.972656 C 325.226562 104.769531 343.035156 144.550781 343.035156 188.492188 C 343.035156 232.433594 325.226562 272.207031 296.429688 301.003906 C 267.632812 329.800781 227.851562 347.617188 183.910156 347.617188 C 139.96875 347.617188 100.1875 329.800781 71.390625 301.003906 C 42.59375 272.207031 24.785156 232.433594 24.785156 188.492188 C 24.785156 144.550781 42.59375 104.769531 71.390625 75.972656 C 100.1875 47.175781 139.96875 29.367188 183.910156 29.367188 Z M 295.613281 76.78125 C 267.03125 48.191406 227.53125 30.511719 183.910156 30.511719 C 140.28125 30.511719 100.789062 48.191406 72.199219 76.78125 C 43.617188 105.371094 25.9375 144.863281 25.9375 188.492188 C 25.9375 232.113281 43.617188 271.605469 72.199219 300.195312 C 100.789062 328.785156 140.28125 346.464844 183.910156 346.464844 C 227.53125 346.464844 267.03125 328.785156 295.613281 300.195312 C 324.203125 271.605469 341.882812 232.113281 341.882812 188.492188 C 341.882812 144.863281 324.203125 105.371094 295.613281 76.78125 Z M 295.613281 76.78125 " fill-opacity="1" fill-rule="nonzero"/><path fill="#a6a6a6" d="M 42.019531 188.492188 C 42.019531 149.304688 57.902344 113.835938 83.578125 88.160156 C 109.253906 62.484375 144.722656 46.601562 183.910156 46.601562 C 223.089844 46.601562 258.566406 62.484375 284.242188 88.160156 C 309.917969 113.835938 325.800781 149.304688 325.800781 188.492188 C 325.800781 200.9375 324.160156 213.28125 320.960938 225.210938 C 317.769531 237.121094 313.015625 248.628906 306.785156 259.421875 L 302.820312 257.140625 C 308.832031 246.722656 313.429688 235.582031 316.527344 224.027344 C 319.617188 212.492188 321.203125 200.546875 321.203125 188.492188 C 321.203125 150.578125 305.839844 116.253906 280.988281 91.40625 C 256.140625 66.5625 221.824219 51.191406 183.910156 51.191406 C 145.996094 51.191406 111.671875 66.5625 86.824219 91.40625 C 61.980469 116.253906 46.617188 150.578125 46.617188 188.492188 Z M 42.019531 188.492188 " fill-opacity="1" fill-rule="nonzero"/><path fill="#000000" d="M 265.480469 329.765625 C 253.066406 336.929688 239.832031 342.402344 226.132812 346.066406 C 212.40625 349.75 198.207031 351.632812 183.910156 351.632812 C 138.859375 351.632812 98.070312 333.375 68.546875 303.847656 C 39.027344 274.328125 20.761719 233.542969 20.761719 188.492188 C 20.761719 143.4375 39.027344 102.652344 68.546875 73.128906 C 98.070312 43.601562 138.859375 25.34375 183.910156 25.34375 L 183.910156 34.535156 C 141.398438 34.535156 102.910156 51.765625 75.042969 79.625 C 47.183594 107.484375 29.953125 145.972656 29.953125 188.492188 C 29.953125 231.003906 47.183594 269.492188 75.042969 297.351562 C 102.910156 325.210938 141.398438 342.445312 183.910156 342.445312 C 197.433594 342.445312 210.832031 340.667969 223.757812 337.199219 C 236.710938 333.730469 249.199219 328.578125 260.890625 321.828125 Z M 265.480469 329.765625 " fill-opacity="1" fill-rule="nonzero"/><path fill="#d9d9d9" d="M 188.367188 67.855469 C 188.367188 68.148438 188.335938 68.4375 188.28125 68.726562 C 188.222656 69.011719 188.140625 69.292969 188.027344 69.5625 C 187.914062 69.832031 187.777344 70.089844 187.613281 70.332031 C 187.453125 70.574219 187.269531 70.800781 187.0625 71.007812 C 186.855469 71.214844 186.628906 71.398438 186.386719 71.5625 C 186.140625 71.722656 185.886719 71.863281 185.617188 71.972656 C 185.34375 72.085938 185.066406 72.167969 184.78125 72.226562 C 184.492188 72.285156 184.203125 72.3125 183.910156 72.3125 C 183.617188 72.3125 183.328125 72.285156 183.039062 72.226562 C 182.753906 72.167969 182.476562 72.085938 182.203125 71.972656 C 181.933594 71.859375 181.679688 71.722656 181.433594 71.5625 C 181.191406 71.398438 180.964844 71.214844 180.757812 71.007812 C 180.550781 70.800781 180.367188 70.574219 180.207031 70.332031 C 180.042969 70.089844 179.90625 69.832031 179.792969 69.5625 C 179.679688 69.292969 179.597656 69.011719 179.539062 68.726562 C 179.484375 68.4375 179.453125 68.148438 179.453125 67.855469 C 179.453125 67.5625 179.484375 67.273438 179.539062 66.988281 C 179.597656 66.699219 179.679688 66.421875 179.792969 66.152344 C 179.90625 65.882812 180.042969 65.625 180.207031 65.382812 C 180.367188 65.136719 180.550781 64.914062 180.757812 64.707031 C 180.964844 64.5 181.191406 64.3125 181.433594 64.152344 C 181.679688 63.988281 181.933594 63.851562 182.203125 63.738281 C 182.476562 63.628906 182.753906 63.542969 183.039062 63.488281 C 183.328125 63.429688 183.617188 63.402344 183.910156 63.402344 C 184.203125 63.402344 184.492188 63.429688 184.78125 63.488281 C 185.066406 63.542969 185.34375 63.628906 185.617188 63.738281 C 185.886719 63.851562 186.140625 63.988281 186.386719 64.152344 C 186.628906 64.3125 186.855469 64.5 187.0625 64.707031 C 187.269531 64.914062 187.453125 65.136719 187.613281 65.382812 C 187.777344 65.625 187.914062 65.882812 188.027344 66.152344 C 188.140625 66.421875 188.222656 66.699219 188.28125 66.988281 C 188.335938 67.273438 188.367188 67.5625 188.367188 67.855469 Z M 188.367188 67.855469 " fill-opacity="1" fill-rule="nonzero"/><path fill="#a6a6a6" d="M 312.300781 258.285156 C 312.300781 258.777344 312.25 259.265625 312.15625 259.75 C 312.058594 260.230469 311.917969 260.699219 311.726562 261.15625 C 311.539062 261.609375 311.308594 262.042969 311.035156 262.453125 C 310.761719 262.863281 310.453125 263.238281 310.101562 263.589844 C 309.753906 263.9375 309.375 264.246094 308.96875 264.519531 C 308.558594 264.792969 308.125 265.023438 307.671875 265.214844 C 307.214844 265.402344 306.746094 265.542969 306.265625 265.640625 C 305.78125 265.734375 305.292969 265.785156 304.800781 265.785156 C 304.308594 265.785156 303.820312 265.734375 303.339844 265.640625 C 302.855469 265.542969 302.386719 265.402344 301.933594 265.214844 C 301.476562 265.023438 301.046875 264.792969 300.636719 264.519531 C 300.226562 264.246094 299.847656 263.9375 299.5 263.589844 C 299.152344 263.238281 298.839844 262.863281 298.566406 262.453125 C 298.292969 262.042969 298.0625 261.609375 297.875 261.15625 C 297.6875 260.699219 297.542969 260.230469 297.449219 259.75 C 297.351562 259.265625 297.304688 258.777344 297.304688 258.285156 C 297.304688 257.792969 297.351562 257.308594 297.449219 256.824219 C 297.542969 256.339844 297.6875 255.871094 297.875 255.417969 C 298.0625 254.960938 298.292969 254.53125 298.566406 254.121094 C 298.839844 253.710938 299.152344 253.332031 299.5 252.984375 C 299.847656 252.636719 300.226562 252.324219 300.636719 252.050781 C 301.046875 251.777344 301.476562 251.546875 301.933594 251.359375 C 302.386719 251.171875 302.855469 251.027344 303.339844 250.933594 C 303.820312 250.835938 304.308594 250.789062 304.800781 250.789062 C 305.292969 250.789062 305.78125 250.835938 306.265625 250.933594 C 306.746094 251.027344 307.214844 251.171875 307.671875 251.359375 C 308.125 251.546875 308.558594 251.777344 308.96875 252.050781 C 309.375 252.324219 309.753906 252.636719 310.101562 252.984375 C 310.453125 253.332031 310.761719 253.710938 311.035156 254.121094 C 311.308594 254.53125 311.539062 254.960938 311.726562 255.417969 C 311.917969 255.871094 312.058594 256.339844 312.15625 256.824219 C 312.25 257.308594 312.300781 257.792969 312.300781 258.285156 Z M 312.300781 258.285156 " fill-opacity="1" fill-rule="nonzero"/><path fill="#737373" d="M 92.171875 335.664062 C 92.171875 336.15625 92.121094 336.644531 92.027344 337.125 C 91.929688 337.609375 91.789062 338.078125 91.601562 338.53125 C 91.410156 338.988281 91.179688 339.421875 90.90625 339.828125 C 90.632812 340.238281 90.324219 340.617188 89.972656 340.964844 C 89.625 341.3125 89.246094 341.625 88.839844 341.898438 C 88.429688 342.171875 87.996094 342.402344 87.542969 342.589844 C 87.085938 342.777344 86.617188 342.921875 86.136719 343.015625 C 85.652344 343.113281 85.164062 343.160156 84.671875 343.160156 C 84.179688 343.160156 83.691406 343.113281 83.210938 343.015625 C 82.726562 342.921875 82.257812 342.777344 81.804688 342.589844 C 81.347656 342.402344 80.917969 342.171875 80.507812 341.898438 C 80.097656 341.625 79.71875 341.3125 79.371094 340.964844 C 79.023438 340.617188 78.710938 340.238281 78.4375 339.828125 C 78.164062 339.421875 77.933594 338.988281 77.746094 338.53125 C 77.558594 338.078125 77.414062 337.609375 77.320312 337.125 C 77.222656 336.644531 77.175781 336.15625 77.175781 335.664062 C 77.175781 335.171875 77.222656 334.683594 77.320312 334.203125 C 77.414062 333.71875 77.558594 333.25 77.746094 332.792969 C 77.933594 332.339844 78.164062 331.90625 78.4375 331.5 C 78.710938 331.089844 79.023438 330.710938 79.371094 330.363281 C 79.71875 330.015625 80.097656 329.703125 80.507812 329.429688 C 80.917969 329.15625 81.347656 328.925781 81.804688 328.738281 C 82.257812 328.546875 82.726562 328.40625 83.210938 328.308594 C 83.691406 328.214844 84.179688 328.167969 84.671875 328.167969 C 85.164062 328.167969 85.652344 328.214844 86.136719 328.308594 C 86.617188 328.40625 87.085938 328.546875 87.542969 328.738281 C 87.996094 328.925781 88.429688 329.15625 88.839844 329.429688 C 89.246094 329.703125 89.625 330.015625 89.972656 330.363281 C 90.324219 330.710938 90.632812 331.089844 90.90625 331.5 C 91.179688 331.90625 91.410156 332.339844 91.601562 332.792969 C 91.789062 333.25 91.929688 333.71875 92.027344 334.203125 C 92.121094 334.683594 92.171875 335.171875 92.171875 335.664062 Z M 92.171875 335.664062 " fill-opacity="1" fill-rule="nonzero"/><path fill="#d9d9d9" d="M 183.910156 57.742188 C 220.011719 57.742188 252.703125 72.375 276.359375 96.035156 C 300.019531 119.699219 314.660156 152.382812 314.660156 188.492188 C 314.660156 224.59375 300.019531 257.285156 276.359375 280.941406 C 252.703125 304.601562 220.011719 319.242188 183.910156 319.242188 C 147.800781 319.242188 115.117188 304.601562 91.453125 280.941406 C 67.792969 257.285156 53.160156 224.59375 53.160156 188.492188 C 53.160156 152.382812 67.792969 119.699219 91.453125 96.035156 C 115.117188 72.375 147.800781 57.742188 183.910156 57.742188 Z M 275.878906 96.523438 C 252.339844 72.988281 219.820312 58.433594 183.910156 58.433594 C 147.992188 58.433594 115.480469 72.988281 91.941406 96.523438 C 68.40625 120.0625 53.851562 152.574219 53.851562 188.492188 C 53.851562 224.402344 68.40625 256.921875 91.941406 280.453125 C 115.480469 303.988281 147.992188 318.550781 183.910156 318.550781 C 219.820312 318.550781 252.339844 303.988281 275.878906 280.453125 C 299.40625 256.921875 313.96875 224.402344 313.96875 188.492188 C 313.96875 152.574219 299.40625 120.0625 275.878906 96.523438 Z M 275.878906 96.523438 " fill-opacity="1" fill-rule="nonzero"/><g clip-path="url(#7d46b1bda7)"><path fill="#a6a6a6" d="M 178.699219 0.683594 C 181.566406 0.683594 184.160156 1.84375 186.035156 3.726562 C 187.910156 5.601562 189.070312 8.195312 189.070312 11.058594 C 189.070312 13.925781 187.910156 16.519531 186.035156 18.394531 C 184.160156 20.269531 181.566406 21.429688 178.699219 21.429688 C 175.835938 21.429688 173.242188 20.269531 171.367188 18.394531 C 169.492188 16.519531 168.324219 13.925781 168.324219 11.058594 C 168.324219 8.195312 169.492188 5.601562 171.367188 3.726562 C 173.242188 1.84375 175.835938 0.683594 178.699219 0.683594 Z M 181.96875 7.785156 C 181.136719 6.945312 179.980469 6.425781 178.699219 6.425781 C 177.421875 6.425781 176.261719 6.945312 175.425781 7.785156 C 174.585938 8.621094 174.066406 9.78125 174.066406 11.058594 C 174.066406 12.332031 174.585938 13.492188 175.425781 14.328125 C 176.261719 15.167969 177.421875 15.6875 178.699219 15.6875 C 179.980469 15.6875 181.136719 15.167969 181.96875 14.328125 C 182.808594 13.492188 183.328125 12.339844 183.328125 11.058594 C 183.328125 9.78125 182.808594 8.621094 181.96875 7.785156 Z M 181.96875 7.785156 " fill-opacity="1" fill-rule="nonzero"/></g></g></g></g><g clip-path="url(#c319292585)"><g clip-path="url(#6ef0a977b5)"><g clip-path="url(#df70e93597)"><path fill="#ff66c4" d="M 234.824219 254.039062 L 251.949219 253.3125 L 281.15625 221.511719 L 280.621094 208.933594 C 280.613281 208.792969 280.667969 208.664062 280.757812 208.566406 L 291.964844 196.363281 C 291.640625 195.925781 291.464844 195.40625 291.445312 194.882812 L 291.445312 194.878906 C 291.417969 194.195312 291.648438 193.5 292.144531 192.957031 C 292.644531 192.414062 293.320312 192.125 294.007812 192.09375 L 294.046875 192.097656 C 294.71875 192.078125 295.398438 192.308594 295.929688 192.800781 C 296.472656 193.296875 296.765625 193.972656 296.796875 194.65625 C 296.820312 195.339844 296.589844 196.039062 296.089844 196.582031 C 295.59375 197.125 294.917969 197.414062 294.230469 197.445312 L 294.234375 197.445312 C 293.710938 197.46875 293.179688 197.335938 292.714844 197.054688 L 281.652344 209.101562 L 282.1875 221.667969 C 282.191406 221.800781 282.148438 221.941406 282.050781 222.046875 L 252.558594 254.160156 C 252.46875 254.253906 252.34375 254.316406 252.203125 254.324219 L 234.871094 255.058594 C 234.792969 255.566406 234.570312 256.066406 234.195312 256.472656 C 233.695312 257.015625 233.019531 257.308594 232.335938 257.335938 C 231.652344 257.367188 230.957031 257.132812 230.410156 256.632812 C 229.867188 256.132812 229.578125 255.464844 229.546875 254.777344 L 229.546875 254.773438 C 229.523438 254.089844 229.75 253.394531 230.25 252.851562 C 230.75 252.304688 231.425781 252.015625 232.109375 251.984375 L 232.148438 251.984375 C 232.820312 251.96875 233.5 252.199219 234.035156 252.6875 C 234.441406 253.0625 234.707031 253.539062 234.824219 254.039062 Z M 221.902344 227.019531 C 222.609375 226.25 223.5625 225.839844 224.527344 225.796875 C 225.335938 225.765625 226.152344 225.988281 226.847656 226.472656 L 235.835938 216.6875 L 235.378906 205.945312 C 234.785156 205.800781 234.214844 205.503906 233.734375 205.058594 C 232.964844 204.351562 232.550781 203.402344 232.511719 202.433594 C 232.46875 201.464844 232.796875 200.484375 233.503906 199.714844 C 234.210938 198.945312 235.160156 198.535156 236.128906 198.496094 C 236.9375 198.460938 237.753906 198.683594 238.449219 199.167969 L 275.355469 158.984375 C 275.035156 158.546875 274.859375 158.03125 274.835938 157.507812 L 274.835938 157.5 C 274.808594 156.816406 275.039062 156.125 275.539062 155.582031 C 276.039062 155.035156 276.710938 154.746094 277.398438 154.71875 L 277.441406 154.71875 C 278.113281 154.699219 278.789062 154.933594 279.324219 155.421875 C 279.867188 155.921875 280.160156 156.59375 280.1875 157.277344 C 280.214844 157.964844 279.984375 158.65625 279.484375 159.203125 C 278.984375 159.746094 278.308594 160.035156 277.625 160.066406 L 277.625 160.070312 C 277.101562 160.089844 276.574219 159.960938 276.109375 159.675781 L 239.203125 199.859375 C 239.742188 200.507812 240.035156 201.308594 240.070312 202.113281 C 240.109375 203.082031 239.78125 204.0625 239.074219 204.832031 C 238.367188 205.601562 237.417969 206.011719 236.449219 206.050781 L 236.40625 206.054688 L 236.863281 216.84375 C 236.875 216.980469 236.828125 217.117188 236.730469 217.222656 L 227.601562 227.164062 C 228.144531 227.8125 228.433594 228.613281 228.46875 229.417969 C 228.507812 230.382812 228.179688 231.367188 227.472656 232.136719 C 226.765625 232.90625 225.816406 233.316406 224.851562 233.355469 C 223.882812 233.398438 222.902344 233.070312 222.132812 232.363281 C 221.363281 231.65625 220.953125 230.707031 220.910156 229.738281 C 220.871094 228.769531 221.195312 227.789062 221.902344 227.019531 Z M 224.574219 226.816406 C 223.867188 226.847656 223.171875 227.148438 222.652344 227.710938 C 222.140625 228.269531 221.898438 228.992188 221.929688 229.695312 C 221.960938 230.402344 222.257812 231.09375 222.824219 231.613281 C 223.382812 232.128906 224.101562 232.367188 224.808594 232.339844 C 225.511719 232.308594 226.207031 232.007812 226.722656 231.445312 C 227.238281 230.882812 227.480469 230.164062 227.453125 229.460938 C 227.421875 228.757812 227.121094 228.066406 226.570312 227.554688 L 226.558594 227.542969 L 226.546875 227.535156 C 225.988281 227.023438 225.277344 226.789062 224.574219 226.816406 Z M 266.472656 344.851562 L 266.464844 344.859375 C 265.953125 345.421875 265.71875 346.132812 265.746094 346.835938 C 265.777344 347.542969 266.078125 348.238281 266.636719 348.753906 C 267.199219 349.269531 267.921875 349.507812 268.625 349.480469 C 269.332031 349.449219 270.023438 349.152344 270.542969 348.585938 C 271.058594 348.027344 271.296875 347.308594 271.269531 346.601562 C 271.238281 345.898438 270.9375 345.203125 270.375 344.683594 C 269.8125 344.167969 269.09375 343.929688 268.390625 343.957031 C 267.6875 343.988281 266.996094 344.289062 266.484375 344.839844 Z M 264.726562 346.882812 C 264.695312 346.074219 264.917969 345.253906 265.402344 344.558594 L 245.40625 326.195312 L 240.097656 326.421875 C 239.964844 326.429688 239.828125 326.386719 239.71875 326.289062 L 211.589844 300.453125 C 211.496094 300.359375 211.433594 300.238281 211.425781 300.097656 L 211.070312 291.734375 L 197.964844 279.699219 L 182.789062 296.222656 C 182.597656 296.433594 182.273438 296.445312 182.066406 296.253906 C 181.859375 296.0625 181.84375 295.742188 182.035156 295.535156 L 197.558594 278.632812 C 197.75 278.425781 198.070312 278.410156 198.277344 278.601562 L 211.917969 291.128906 C 212.023438 291.222656 212.078125 291.355469 212.078125 291.492188 L 212.433594 299.84375 L 240.253906 325.394531 L 245.5625 325.167969 L 245.585938 325.167969 L 269.070312 324.171875 C 269.207031 324.164062 269.335938 324.214844 269.4375 324.304688 L 291.667969 344.722656 C 292.101562 344.398438 292.621094 344.222656 293.144531 344.203125 L 293.183594 344.199219 C 293.859375 344.183594 294.539062 344.417969 295.070312 344.90625 C 295.613281 345.40625 295.902344 346.078125 295.933594 346.761719 C 295.960938 347.445312 295.730469 348.144531 295.230469 348.6875 C 294.730469 349.230469 294.058594 349.519531 293.371094 349.550781 L 293.375 349.550781 C 292.6875 349.582031 291.988281 349.347656 291.445312 348.851562 C 290.902344 348.351562 290.613281 347.675781 290.585938 346.992188 L 290.585938 346.984375 C 290.5625 346.460938 290.691406 345.9375 290.976562 345.472656 L 268.898438 325.195312 L 246.847656 326.132812 L 266.09375 343.808594 C 266.742188 343.265625 267.542969 342.976562 268.347656 342.941406 C 269.3125 342.898438 270.296875 343.230469 271.0625 343.933594 C 271.832031 344.640625 272.246094 345.59375 272.285156 346.558594 C 272.328125 347.527344 272 348.507812 271.292969 349.277344 C 270.585938 350.046875 269.636719 350.457031 268.667969 350.5 C 267.699219 350.539062 266.714844 350.210938 265.949219 349.503906 C 265.179688 348.800781 264.769531 347.847656 264.726562 346.882812 Z M 203.023438 265.082031 C 203.519531 264.539062 204.195312 264.246094 204.882812 264.21875 L 204.925781 264.21875 C 205.597656 264.199219 206.273438 264.433594 206.804688 264.921875 C 207.347656 265.421875 207.640625 266.097656 207.667969 266.777344 C 207.695312 267.304688 207.5625 267.832031 207.277344 268.292969 L 215.03125 275.417969 L 263.9375 273.339844 C 264.070312 273.332031 264.207031 273.375 264.316406 273.472656 L 269.132812 277.898438 L 295.535156 276.773438 C 295.609375 276.261719 295.835938 275.769531 296.207031 275.363281 C 296.710938 274.816406 297.382812 274.527344 298.066406 274.496094 L 298.109375 274.496094 C 298.78125 274.476562 299.460938 274.710938 299.992188 275.199219 C 300.539062 275.699219 300.828125 276.375 300.855469 277.058594 C 300.886719 277.742188 300.652344 278.4375 300.152344 278.984375 C 299.652344 279.527344 298.980469 279.816406 298.296875 279.84375 L 298.292969 279.847656 C 297.613281 279.875 296.914062 279.644531 296.367188 279.144531 C 295.960938 278.769531 295.695312 278.296875 295.578125 277.792969 L 270.191406 278.871094 L 287.707031 294.957031 L 315.277344 293.785156 C 315.355469 293.273438 315.578125 292.78125 315.953125 292.371094 C 316.453125 291.828125 317.128906 291.539062 317.8125 291.507812 L 317.851562 291.507812 C 318.523438 291.488281 319.203125 291.722656 319.734375 292.210938 C 320.28125 292.710938 320.570312 293.386719 320.601562 294.070312 C 320.628906 294.753906 320.398438 295.453125 319.898438 295.996094 C 319.398438 296.539062 318.722656 296.828125 318.039062 296.859375 C 317.355469 296.890625 316.65625 296.65625 316.113281 296.15625 C 315.707031 295.78125 315.441406 295.308594 315.324219 294.804688 L 287.539062 295.984375 C 287.398438 295.992188 287.269531 295.941406 287.175781 295.851562 L 263.78125 274.367188 L 214.859375 276.445312 C 214.722656 276.453125 214.59375 276.402344 214.496094 276.3125 L 206.585938 269.046875 C 206.148438 269.367188 205.628906 269.542969 205.105469 269.566406 C 204.421875 269.597656 203.726562 269.367188 203.183594 268.867188 C 202.640625 268.367188 202.351562 267.691406 202.320312 267.007812 L 202.320312 267.003906 C 202.292969 266.316406 202.523438 265.625 203.023438 265.082031 Z M 230.011719 289.246094 C 230.507812 288.703125 231.179688 288.410156 231.867188 288.378906 L 231.910156 288.382812 C 232.582031 288.363281 233.257812 288.597656 233.792969 289.085938 C 234.335938 289.585938 234.625 290.257812 234.65625 290.941406 C 234.679688 291.464844 234.546875 291.996094 234.261719 292.460938 L 247.945312 305.027344 L 272.058594 304 L 257.820312 290.925781 C 257.171875 291.46875 256.375 291.761719 255.566406 291.792969 C 254.601562 291.832031 253.617188 291.507812 252.847656 290.800781 C 252.078125 290.09375 251.671875 289.140625 251.628906 288.175781 C 251.585938 287.207031 251.914062 286.226562 252.621094 285.457031 C 253.328125 284.6875 254.277344 284.277344 255.246094 284.238281 C 256.214844 284.195312 257.199219 284.523438 257.96875 285.230469 C 258.738281 285.933594 259.144531 286.886719 259.183594 287.855469 C 259.222656 288.660156 258.996094 289.480469 258.511719 290.171875 L 284.46875 314.011719 C 284.574219 314.109375 284.628906 314.242188 284.628906 314.375 L 284.796875 318.289062 L 298.574219 330.945312 C 299.015625 330.621094 299.53125 330.445312 300.054688 330.425781 L 300.050781 330.425781 C 300.738281 330.398438 301.4375 330.628906 301.980469 331.128906 C 302.523438 331.628906 302.8125 332.304688 302.84375 332.988281 C 302.875 333.671875 302.640625 334.371094 302.140625 334.914062 C 301.652344 335.445312 300.996094 335.734375 300.324219 335.769531 L 300.28125 335.777344 C 299.597656 335.804688 298.902344 335.574219 298.355469 335.074219 C 297.8125 334.574219 297.523438 333.902344 297.492188 333.21875 L 297.496094 333.214844 L 297.492188 333.214844 C 297.472656 332.691406 297.601562 332.160156 297.886719 331.699219 L 284.859375 319.730469 L 285.230469 328.492188 L 329.222656 368.898438 C 329.660156 368.574219 330.175781 368.398438 330.699219 368.375 C 331.386719 368.347656 332.082031 368.578125 332.625 369.078125 C 333.160156 369.566406 333.445312 370.222656 333.484375 370.894531 L 333.488281 370.9375 C 333.519531 371.621094 333.289062 372.316406 332.785156 372.863281 C 332.289062 373.40625 331.617188 373.695312 330.933594 373.726562 L 330.925781 373.726562 C 330.242188 373.753906 329.546875 373.519531 329.003906 373.023438 C 328.460938 372.523438 328.167969 371.847656 328.136719 371.164062 L 328.144531 371.164062 C 328.121094 370.640625 328.246094 370.109375 328.535156 369.648438 L 284.382812 329.101562 C 284.289062 329.011719 284.230469 328.886719 284.21875 328.746094 L 283.789062 318.558594 L 283.785156 318.53125 L 283.621094 314.617188 L 273.121094 304.976562 L 247.789062 306.054688 C 247.652344 306.0625 247.515625 306.019531 247.410156 305.921875 L 233.574219 293.210938 C 233.136719 293.535156 232.617188 293.710938 232.09375 293.730469 C 231.410156 293.761719 230.714844 293.53125 230.167969 293.03125 C 229.625 292.53125 229.335938 291.859375 229.308594 291.171875 L 229.308594 291.167969 C 229.277344 290.480469 229.511719 289.789062 230.011719 289.246094 Z M 257.902344 260.898438 L 268.988281 248.828125 C 269.085938 248.71875 269.21875 248.664062 269.351562 248.660156 L 277.539062 248.316406 C 277.617188 247.804688 277.84375 247.308594 278.214844 246.902344 C 278.71875 246.355469 279.386719 246.066406 280.074219 246.039062 L 280.117188 246.039062 C 280.789062 246.019531 281.46875 246.25 282 246.738281 C 282.546875 247.238281 282.835938 247.914062 282.863281 248.597656 C 282.890625 249.285156 282.664062 249.980469 282.160156 250.523438 C 281.664062 251.066406 280.988281 251.359375 280.300781 251.386719 C 279.617188 251.417969 278.921875 251.183594 278.378906 250.683594 C 277.96875 250.308594 277.703125 249.835938 277.582031 249.332031 L 269.597656 249.671875 L 258.625 261.621094 C 259.101562 262.25 259.363281 262.996094 259.390625 263.753906 C 259.433594 264.71875 259.105469 265.699219 258.398438 266.46875 C 257.691406 267.238281 256.742188 267.652344 255.773438 267.691406 C 254.804688 267.734375 253.824219 267.402344 253.054688 266.699219 C 252.421875 266.117188 252.03125 265.367188 251.890625 264.582031 L 223.4375 265.789062 C 223.320312 266.5 223.007812 267.1875 222.488281 267.753906 C 221.78125 268.523438 220.828125 268.933594 219.859375 268.976562 C 218.894531 269.015625 217.910156 268.6875 217.140625 267.980469 C 216.371094 267.273438 215.964844 266.324219 215.921875 265.359375 C 215.886719 264.546875 216.109375 263.734375 216.59375 263.035156 L 208.390625 255.5 L 197.730469 255.953125 L 170.832031 285.242188 C 170.640625 285.449219 170.316406 285.464844 170.109375 285.273438 C 169.902344 285.082031 169.886719 284.757812 170.078125 284.550781 L 197.125 255.105469 C 197.222656 255 197.355469 254.945312 197.488281 254.941406 L 208.558594 254.472656 C 208.699219 254.464844 208.828125 254.515625 208.925781 254.605469 L 217.285156 262.285156 C 217.9375 261.742188 218.734375 261.449219 219.539062 261.417969 C 220.507812 261.378906 221.492188 261.703125 222.261719 262.410156 C 222.960938 263.050781 223.363281 263.894531 223.460938 264.769531 L 251.847656 263.5625 C 251.917969 262.765625 252.246094 261.988281 252.828125 261.355469 C 253.535156 260.585938 254.484375 260.175781 255.453125 260.132812 C 256.3125 260.097656 257.179688 260.351562 257.902344 260.898438 Z M 255.496094 261.152344 C 254.789062 261.179688 254.09375 261.484375 253.578125 262.042969 C 253.0625 262.605469 252.824219 263.320312 252.851562 264.027344 C 252.882812 264.734375 253.183594 265.429688 253.746094 265.949219 C 254.308594 266.464844 255.027344 266.703125 255.734375 266.671875 C 256.4375 266.640625 257.128906 266.34375 257.648438 265.78125 C 258.164062 265.21875 258.40625 264.5 258.375 263.796875 C 258.34375 263.089844 258.046875 262.394531 257.484375 261.878906 C 256.921875 261.359375 256.203125 261.121094 255.496094 261.152344 Z M 253.375 286.144531 C 252.859375 286.707031 252.621094 287.425781 252.648438 288.132812 C 252.679688 288.839844 252.976562 289.53125 253.539062 290.050781 C 254.101562 290.566406 254.820312 290.804688 255.527344 290.773438 C 256.226562 290.746094 256.917969 290.449219 257.433594 289.890625 L 257.441406 289.882812 L 257.449219 289.871094 C 257.960938 289.3125 258.199219 288.597656 258.167969 287.898438 C 258.136719 287.191406 257.839844 286.496094 257.277344 285.980469 C 256.714844 285.460938 255.996094 285.226562 255.292969 285.257812 C 254.585938 285.285156 253.886719 285.585938 253.375 286.144531 Z M 238.023438 229.261719 C 238.730469 228.492188 239.679688 228.078125 240.648438 228.039062 C 241.453125 228.003906 242.273438 228.226562 242.96875 228.714844 L 252.929688 217.867188 L 252.292969 202.910156 C 252.289062 202.769531 252.339844 202.636719 252.425781 202.542969 L 311.113281 138.644531 L 310.84375 132.285156 C 310.332031 132.207031 309.839844 131.980469 309.429688 131.605469 C 308.886719 131.109375 308.597656 130.433594 308.566406 129.75 L 308.566406 129.746094 C 308.539062 129.058594 308.769531 128.363281 309.265625 127.824219 C 309.769531 127.277344 310.445312 126.988281 311.128906 126.960938 L 311.171875 126.957031 C 311.839844 126.941406 312.519531 127.171875 313.054688 127.660156 C 313.597656 128.160156 313.886719 128.835938 313.917969 129.523438 C 313.945312 130.203125 313.714844 130.898438 313.210938 131.445312 C 312.839844 131.851562 312.367188 132.121094 311.863281 132.238281 L 312.140625 138.800781 C 312.152344 138.933594 312.105469 139.070312 312.007812 139.175781 L 253.320312 203.074219 L 253.957031 218.027344 C 253.964844 218.15625 253.921875 218.296875 253.824219 218.402344 L 243.722656 229.402344 C 244.261719 230.054688 244.554688 230.851562 244.589844 231.65625 C 244.628906 232.625 244.300781 233.605469 243.59375 234.375 C 242.890625 235.144531 241.9375 235.554688 240.96875 235.597656 C 240.003906 235.636719 239.019531 235.308594 238.253906 234.605469 C 237.484375 233.898438 237.070312 232.945312 237.03125 231.976562 C 236.988281 231.011719 237.320312 230.027344 238.023438 229.261719 Z M 240.691406 229.054688 C 239.988281 229.085938 239.292969 229.386719 238.773438 229.949219 C 238.257812 230.511719 238.019531 231.230469 238.046875 231.933594 C 238.078125 232.640625 238.378906 233.335938 238.941406 233.851562 C 239.503906 234.367188 240.222656 234.609375 240.925781 234.578125 C 241.632812 234.550781 242.328125 234.246094 242.84375 233.6875 C 243.359375 233.121094 243.601562 232.40625 243.570312 231.699219 C 243.539062 230.996094 243.242188 230.308594 242.6875 229.792969 L 242.667969 229.773438 C 242.109375 229.265625 241.394531 229.027344 240.691406 229.054688 Z M 219.582031 262.4375 C 218.882812 262.464844 218.191406 262.761719 217.675781 263.316406 L 217.667969 263.328125 L 217.65625 263.335938 C 217.148438 263.898438 216.910156 264.613281 216.941406 265.3125 C 216.972656 266.019531 217.269531 266.714844 217.832031 267.230469 C 218.390625 267.746094 219.113281 267.984375 219.816406 267.953125 C 220.523438 267.925781 221.21875 267.625 221.734375 267.0625 C 222.25 266.503906 222.488281 265.785156 222.460938 265.078125 C 222.429688 264.371094 222.128906 263.675781 221.570312 263.160156 C 221.007812 262.644531 220.289062 262.40625 219.582031 262.4375 Z M 198.167969 240.328125 C 198.265625 240.222656 198.398438 240.164062 198.535156 240.160156 L 223.1875 239.117188 C 223.328125 239.109375 223.460938 239.160156 223.554688 239.25 L 231.484375 246.53125 L 245.199219 245.949219 L 266.929688 222.289062 L 266.421875 210.390625 C 266.417969 210.25 266.464844 210.121094 266.554688 210.023438 L 303.367188 169.941406 C 303.046875 169.507812 302.871094 168.988281 302.847656 168.464844 L 302.847656 168.460938 C 302.820312 167.777344 303.050781 167.082031 303.550781 166.539062 C 304.050781 165.996094 304.722656 165.707031 305.40625 165.675781 L 305.449219 165.675781 C 306.121094 165.65625 306.800781 165.886719 307.332031 166.375 C 307.878906 166.878906 308.167969 167.550781 308.195312 168.238281 C 308.226562 168.921875 307.996094 169.617188 307.496094 170.164062 C 306.996094 170.707031 306.320312 170.996094 305.636719 171.023438 L 305.632812 171.027344 C 305.109375 171.046875 304.582031 170.917969 304.121094 170.628906 L 267.449219 210.558594 L 267.953125 222.449219 C 267.964844 222.582031 267.917969 222.71875 267.820312 222.824219 L 245.808594 246.792969 C 245.71875 246.890625 245.59375 246.953125 245.453125 246.957031 L 231.328125 247.558594 C 231.191406 247.570312 231.058594 247.523438 230.949219 247.425781 L 223.019531 240.140625 L 198.773438 241.175781 L 183.074219 258.269531 C 182.886719 258.472656 182.558594 258.488281 182.355469 258.300781 C 182.144531 258.109375 182.136719 257.785156 182.324219 257.578125 Z M 236.171875 199.515625 C 235.464844 199.542969 234.773438 199.84375 234.253906 200.40625 C 233.738281 200.96875 233.496094 201.683594 233.53125 202.394531 C 233.5625 203.097656 233.859375 203.789062 234.421875 204.308594 C 234.859375 204.710938 235.390625 204.945312 235.9375 205.015625 L 235.941406 205.015625 L 235.945312 205.011719 C 236.097656 205.035156 236.25 205.039062 236.40625 205.035156 C 237.113281 205.003906 237.808594 204.703125 238.324219 204.144531 C 238.839844 203.578125 239.078125 202.863281 239.050781 202.160156 C 239.019531 201.453125 238.722656 200.761719 238.167969 200.246094 L 238.160156 200.242188 L 238.148438 200.230469 C 237.589844 199.71875 236.875 199.484375 236.171875 199.515625 Z M 238.160156 200.242188 Z M 238.160156 200.242188 " fill-opacity="1" fill-rule="nonzero"/></g></g></g><g clip-path="url(#01c98df3be)"><g clip-path="url(#c3a8933b62)"><g clip-path="url(#888590e266)"><path fill="#ff66c4" d="M 132.636719 106.464844 L 132.636719 88.519531 L 100.667969 56.550781 L 87.484375 56.554688 C 87.339844 56.554688 87.203125 56.492188 87.109375 56.394531 L 74.839844 44.128906 C 74.367188 44.445312 73.816406 44.605469 73.269531 44.605469 L 73.265625 44.605469 C 72.546875 44.605469 71.832031 44.332031 71.285156 43.785156 C 70.738281 43.242188 70.464844 42.523438 70.464844 41.800781 L 70.46875 41.757812 C 70.480469 41.054688 70.753906 40.355469 71.289062 39.820312 C 71.835938 39.277344 72.554688 39 73.269531 39 C 73.984375 39 74.707031 39.277344 75.25 39.820312 C 75.796875 40.367188 76.070312 41.085938 76.070312 41.804688 L 76.074219 41.800781 C 76.074219 42.351562 75.914062 42.898438 75.59375 43.371094 L 87.707031 55.484375 L 100.875 55.484375 C 101.015625 55.484375 101.160156 55.53125 101.265625 55.640625 L 133.546875 87.921875 C 133.640625 88.019531 133.699219 88.152344 133.703125 88.300781 L 133.703125 106.460938 C 134.230469 106.566406 134.742188 106.820312 135.152344 107.234375 C 135.699219 107.777344 135.972656 108.5 135.972656 109.21875 C 135.972656 109.933594 135.699219 110.648438 135.148438 111.199219 C 134.601562 111.746094 133.890625 112.019531 133.171875 112.019531 L 133.164062 112.019531 C 132.449219 112.015625 131.730469 111.746094 131.1875 111.199219 C 130.636719 110.648438 130.367188 109.933594 130.363281 109.21875 L 130.367188 109.171875 C 130.378906 108.46875 130.648438 107.769531 131.183594 107.234375 C 131.59375 106.820312 132.105469 106.566406 132.636719 106.464844 Z M 103.792969 118.78125 C 103.019531 118.007812 102.632812 116.996094 102.632812 115.980469 C 102.636719 115.136719 102.902344 114.289062 103.441406 113.582031 L 93.605469 103.746094 L 82.347656 103.746094 C 82.167969 104.363281 81.835938 104.945312 81.347656 105.429688 C 80.574219 106.203125 79.558594 106.59375 78.546875 106.59375 C 77.53125 106.59375 76.519531 106.207031 75.746094 105.433594 C 74.972656 104.660156 74.585938 103.644531 74.585938 102.632812 C 74.589844 101.785156 74.855469 100.941406 75.394531 100.234375 L 35 59.839844 C 34.527344 60.15625 33.980469 60.316406 33.429688 60.316406 L 33.425781 60.316406 C 32.710938 60.316406 31.992188 60.042969 31.445312 59.496094 C 30.898438 58.949219 30.625 58.234375 30.625 57.511719 L 30.628906 57.46875 C 30.640625 56.765625 30.914062 56.066406 31.449219 55.53125 C 31.996094 54.988281 32.710938 54.710938 33.429688 54.710938 C 34.148438 54.710938 34.863281 54.984375 35.414062 55.53125 C 35.957031 56.078125 36.230469 56.796875 36.230469 57.515625 L 36.234375 57.511719 C 36.234375 58.0625 36.074219 58.609375 35.757812 59.082031 L 76.152344 99.480469 C 76.855469 98.941406 77.703125 98.671875 78.546875 98.671875 C 79.558594 98.671875 80.574219 99.058594 81.347656 99.832031 C 82.121094 100.605469 82.507812 101.617188 82.507812 102.632812 L 82.507812 102.679688 L 93.816406 102.679688 C 93.957031 102.675781 94.097656 102.726562 94.207031 102.835938 L 104.199219 112.828125 C 104.902344 112.289062 105.75 112.019531 106.59375 112.019531 C 107.605469 112.019531 108.621094 112.410156 109.394531 113.183594 C 110.167969 113.957031 110.554688 114.96875 110.554688 115.980469 C 110.554688 116.996094 110.167969 118.007812 109.394531 118.78125 C 108.621094 119.554688 107.605469 119.941406 106.59375 119.941406 C 105.578125 119.941406 104.566406 119.554688 103.792969 118.78125 Z M 103.703125 115.980469 C 103.703125 116.71875 103.984375 117.460938 104.550781 118.027344 C 105.113281 118.589844 105.855469 118.875 106.59375 118.875 C 107.335938 118.875 108.074219 118.589844 108.640625 118.023438 C 109.203125 117.460938 109.488281 116.722656 109.488281 115.980469 C 109.488281 115.242188 109.203125 114.5 108.640625 113.9375 C 108.074219 113.371094 107.332031 113.085938 106.59375 113.085938 C 105.859375 113.085938 105.121094 113.367188 104.558594 113.925781 L 104.539062 113.945312 C 103.980469 114.507812 103.703125 115.246094 103.703125 115.980469 Z M 229.039062 77.398438 L 229.046875 77.40625 C 229.613281 77.964844 230.347656 78.246094 231.082031 78.246094 C 231.820312 78.246094 232.5625 77.964844 233.128906 77.398438 C 233.695312 76.832031 233.976562 76.089844 233.976562 75.351562 C 233.976562 74.609375 233.695312 73.875 233.128906 73.308594 C 232.5625 72.742188 231.824219 72.460938 231.085938 72.460938 C 230.34375 72.460938 229.605469 72.742188 229.039062 73.308594 C 228.472656 73.875 228.191406 74.613281 228.191406 75.351562 C 228.191406 76.089844 228.472656 76.824219 229.027344 77.386719 Z M 231.085938 79.3125 C 230.238281 79.3125 229.390625 79.042969 228.6875 78.503906 L 208.585938 98.605469 L 208.589844 104.167969 C 208.589844 104.308594 208.539062 104.449219 208.429688 104.558594 L 180.152344 132.835938 C 180.054688 132.929688 179.921875 132.992188 179.773438 132.992188 L 171.011719 132.992188 L 157.835938 146.167969 L 174.449219 162.777344 C 174.65625 162.988281 174.65625 163.324219 174.449219 163.535156 C 174.238281 163.742188 173.902344 163.742188 173.691406 163.535156 L 156.703125 146.542969 C 156.492188 146.335938 156.492188 146 156.703125 145.789062 L 170.414062 132.082031 C 170.519531 131.972656 170.660156 131.921875 170.800781 131.925781 L 179.554688 131.925781 L 207.519531 103.957031 L 207.515625 98.394531 L 207.519531 98.371094 L 207.519531 73.761719 C 207.519531 73.617188 207.578125 73.484375 207.675781 73.386719 L 230.023438 51.035156 C 229.703125 50.566406 229.546875 50.015625 229.546875 49.464844 L 229.546875 49.425781 C 229.558594 48.71875 229.832031 48.019531 230.367188 47.484375 C 230.914062 46.941406 231.632812 46.664062 232.347656 46.664062 C 233.066406 46.664062 233.785156 46.941406 234.332031 47.484375 C 234.875 48.03125 235.148438 48.75 235.148438 49.46875 L 235.152344 49.464844 C 235.152344 50.1875 234.878906 50.90625 234.332031 51.449219 C 233.785156 51.996094 233.066406 52.269531 232.347656 52.269531 L 232.34375 52.269531 C 231.796875 52.269531 231.253906 52.109375 230.777344 51.792969 L 208.585938 73.984375 L 208.585938 97.09375 L 227.929688 77.75 C 227.394531 77.046875 227.125 76.195312 227.125 75.351562 C 227.125 74.339844 227.511719 73.324219 228.28125 72.554688 C 229.054688 71.78125 230.070312 71.394531 231.085938 71.394531 C 232.097656 71.394531 233.109375 71.777344 233.882812 72.550781 C 234.65625 73.324219 235.042969 74.339844 235.042969 75.351562 C 235.042969 76.367188 234.65625 77.382812 233.882812 78.15625 C 233.113281 78.925781 232.097656 79.3125 231.085938 79.3125 Z M 142.769531 140.226562 C 142.222656 139.679688 141.949219 138.960938 141.949219 138.242188 L 141.953125 138.199219 C 141.960938 137.496094 142.238281 136.796875 142.773438 136.261719 C 143.316406 135.714844 144.035156 135.441406 144.75 135.441406 C 145.300781 135.4375 145.851562 135.597656 146.320312 135.917969 L 154.117188 128.121094 L 154.117188 76.871094 C 154.113281 76.730469 154.167969 76.589844 154.273438 76.480469 L 159.117188 71.640625 L 159.113281 43.96875 C 158.582031 43.871094 158.078125 43.609375 157.667969 43.203125 C 157.121094 42.652344 156.847656 41.933594 156.847656 41.21875 L 156.847656 41.175781 C 156.859375 40.472656 157.128906 39.773438 157.664062 39.238281 C 158.214844 38.6875 158.933594 38.414062 159.648438 38.417969 C 160.367188 38.414062 161.085938 38.6875 161.632812 39.238281 C 162.179688 39.78125 162.449219 40.5 162.449219 41.21875 L 162.453125 41.21875 C 162.453125 41.933594 162.179688 42.652344 161.632812 43.203125 C 161.222656 43.609375 160.714844 43.871094 160.183594 43.96875 L 160.183594 70.574219 L 177.789062 52.964844 L 177.789062 24.074219 C 177.257812 23.96875 176.753906 23.714844 176.339844 23.304688 C 175.796875 22.757812 175.519531 22.039062 175.519531 21.320312 L 175.519531 21.277344 C 175.53125 20.574219 175.804688 19.875 176.339844 19.339844 C 176.890625 18.792969 177.609375 18.519531 178.324219 18.519531 C 179.042969 18.519531 179.761719 18.792969 180.304688 19.335938 C 180.851562 19.882812 181.125 20.601562 181.125 21.320312 C 181.128906 22.039062 180.855469 22.757812 180.304688 23.304688 C 179.898438 23.714844 179.386719 23.96875 178.859375 24.070312 L 178.859375 53.1875 C 178.859375 53.335938 178.796875 53.46875 178.703125 53.5625 L 155.183594 77.082031 L 155.183594 128.347656 C 155.183594 128.492188 155.125 128.625 155.027344 128.722656 L 147.074219 136.675781 C 147.394531 137.148438 147.554688 137.695312 147.554688 138.246094 C 147.558594 138.960938 147.28125 139.679688 146.738281 140.226562 C 146.191406 140.769531 145.472656 141.046875 144.753906 141.046875 L 144.75 141.046875 C 144.03125 141.042969 143.316406 140.769531 142.769531 140.226562 Z M 169.25 113.070312 C 168.703125 112.523438 168.425781 111.804688 168.425781 111.085938 L 168.429688 111.042969 C 168.4375 110.339844 168.714844 109.640625 169.25 109.105469 C 169.796875 108.558594 170.511719 108.285156 171.230469 108.285156 C 171.777344 108.285156 172.328125 108.445312 172.800781 108.761719 L 186.554688 95.007812 L 186.554688 69.738281 L 172.242188 84.050781 C 172.78125 84.753906 173.050781 85.597656 173.050781 86.449219 C 173.046875 87.457031 172.664062 88.472656 171.890625 89.246094 C 171.117188 90.019531 170.101562 90.40625 169.089844 90.40625 C 168.078125 90.40625 167.0625 90.019531 166.289062 89.246094 C 165.515625 88.472656 165.128906 87.460938 165.128906 86.449219 C 165.128906 85.433594 165.515625 84.417969 166.289062 83.644531 C 167.0625 82.871094 168.078125 82.488281 169.089844 82.488281 C 169.9375 82.484375 170.78125 82.757812 171.484375 83.292969 L 197.578125 57.203125 C 197.683594 57.097656 197.824219 57.042969 197.964844 57.046875 L 202.066406 57.046875 L 215.917969 43.195312 C 215.601562 42.722656 215.441406 42.175781 215.441406 41.625 L 215.441406 41.628906 C 215.441406 40.910156 215.71875 40.191406 216.261719 39.644531 C 216.8125 39.097656 217.527344 38.824219 218.242188 38.824219 C 218.964844 38.824219 219.683594 39.097656 220.226562 39.644531 C 220.761719 40.179688 221.035156 40.878906 221.046875 41.582031 L 221.046875 41.625 C 221.046875 42.347656 220.777344 43.0625 220.226562 43.609375 C 219.683594 44.15625 218.964844 44.429688 218.25 44.429688 L 218.242188 44.429688 C 217.695312 44.429688 217.148438 44.269531 216.675781 43.949219 L 203.578125 57.046875 L 212.761719 57.046875 L 256.984375 12.824219 C 256.664062 12.355469 256.503906 11.804688 256.503906 11.257812 C 256.503906 10.539062 256.777344 9.820312 257.324219 9.273438 C 257.859375 8.738281 258.558594 8.464844 259.261719 8.457031 L 259.304688 8.453125 C 260.027344 8.453125 260.742188 8.726562 261.289062 9.273438 C 261.835938 9.820312 262.109375 10.535156 262.109375 11.253906 L 262.109375 11.257812 C 262.109375 11.972656 261.832031 12.691406 261.289062 13.238281 C 260.742188 13.785156 260.023438 14.058594 259.304688 14.0625 L 259.304688 14.054688 C 258.757812 14.054688 258.210938 13.902344 257.738281 13.578125 L 213.359375 57.960938 C 213.261719 58.058594 213.128906 58.113281 212.980469 58.117188 L 198.175781 58.117188 L 187.621094 68.667969 L 187.621094 95.21875 C 187.625 95.359375 187.570312 95.5 187.464844 95.605469 L 173.554688 109.515625 C 173.875 109.992188 174.035156 110.539062 174.035156 111.085938 C 174.035156 111.804688 173.761719 112.523438 173.214844 113.070312 C 172.667969 113.617188 171.953125 113.890625 171.234375 113.890625 L 171.226562 113.890625 C 170.507812 113.890625 169.792969 113.613281 169.25 113.070312 Z M 140.835938 82.632812 L 128.699219 70.5 C 128.59375 70.390625 128.539062 70.25 128.542969 70.109375 L 128.546875 61.527344 C 128.011719 61.425781 127.503906 61.164062 127.097656 60.757812 C 126.546875 60.207031 126.273438 59.496094 126.273438 58.777344 L 126.277344 58.730469 C 126.289062 58.027344 126.558594 57.328125 127.09375 56.792969 C 127.644531 56.242188 128.359375 55.972656 129.078125 55.972656 C 129.796875 55.972656 130.515625 56.242188 131.0625 56.792969 C 131.609375 57.335938 131.882812 58.058594 131.882812 58.777344 C 131.882812 59.496094 131.609375 60.207031 131.058594 60.757812 C 130.648438 61.167969 130.144531 61.425781 129.609375 61.527344 L 129.609375 69.898438 L 141.621094 81.90625 C 142.300781 81.433594 143.09375 81.195312 143.886719 81.199219 C 144.902344 81.199219 145.914062 81.585938 146.683594 82.359375 C 147.457031 83.132812 147.847656 84.144531 147.847656 85.160156 C 147.847656 86.171875 147.457031 87.1875 146.6875 87.957031 C 146.050781 88.597656 145.246094 88.96875 144.417969 89.082031 L 144.417969 118.902344 C 145.15625 119.054688 145.859375 119.410156 146.433594 119.984375 C 147.207031 120.757812 147.59375 121.769531 147.59375 122.785156 C 147.589844 123.796875 147.207031 124.8125 146.433594 125.585938 C 145.660156 126.359375 144.644531 126.742188 143.632812 126.746094 C 142.785156 126.746094 141.941406 126.476562 141.234375 125.9375 L 132.984375 134.1875 L 132.984375 145.355469 L 162.425781 174.796875 C 162.636719 175.007812 162.636719 175.34375 162.425781 175.554688 C 162.222656 175.761719 161.882812 175.761719 161.671875 175.554688 L 132.070312 145.953125 C 131.964844 145.847656 131.914062 145.703125 131.914062 145.5625 L 131.917969 133.964844 C 131.914062 133.816406 131.976562 133.683594 132.074219 133.585938 L 140.476562 125.183594 C 139.941406 124.476562 139.671875 123.628906 139.671875 122.785156 C 139.671875 121.769531 140.054688 120.757812 140.828125 119.984375 C 141.53125 119.277344 142.433594 118.894531 143.351562 118.832031 L 143.351562 89.082031 C 142.523438 88.972656 141.722656 88.59375 141.085938 87.957031 C 140.3125 87.183594 139.925781 86.171875 139.925781 85.160156 C 139.925781 84.257812 140.230469 83.363281 140.835938 82.632812 Z M 140.992188 85.160156 C 140.992188 85.898438 141.277344 86.640625 141.839844 87.203125 C 142.40625 87.769531 143.144531 88.050781 143.882812 88.050781 C 144.625 88.050781 145.367188 87.769531 145.933594 87.203125 C 146.496094 86.640625 146.777344 85.898438 146.777344 85.15625 C 146.777344 84.417969 146.496094 83.679688 145.929688 83.113281 C 145.367188 82.550781 144.625 82.265625 143.886719 82.265625 C 143.148438 82.265625 142.40625 82.546875 141.839844 83.109375 C 141.273438 83.675781 140.992188 84.417969 140.992188 85.160156 Z M 167.042969 88.492188 C 167.609375 89.054688 168.351562 89.335938 169.089844 89.335938 C 169.832031 89.335938 170.570312 89.058594 171.136719 88.492188 C 171.699219 87.925781 171.984375 87.183594 171.984375 86.445312 C 171.984375 85.710938 171.703125 84.976562 171.144531 84.410156 L 171.132812 84.402344 L 171.125 84.390625 C 170.558594 83.832031 169.824219 83.554688 169.089844 83.554688 C 168.351562 83.554688 167.609375 83.835938 167.042969 84.398438 C 166.476562 84.964844 166.199219 85.707031 166.199219 86.445312 C 166.199219 87.183594 166.480469 87.925781 167.042969 88.492188 Z M 106.855469 102.019531 C 106.082031 101.246094 105.691406 100.230469 105.691406 99.21875 C 105.691406 98.375 105.960938 97.527344 106.503906 96.820312 L 95.601562 85.917969 L 79.921875 85.917969 C 79.773438 85.917969 79.640625 85.859375 79.542969 85.765625 L 15.3125 21.53125 L 8.644531 21.527344 C 8.542969 22.0625 8.285156 22.566406 7.875 22.976562 C 7.328125 23.523438 6.609375 23.796875 5.894531 23.800781 L 5.886719 23.800781 C 5.171875 23.796875 4.453125 23.523438 3.910156 22.980469 C 3.363281 22.429688 3.085938 21.710938 3.089844 20.996094 L 3.089844 20.949219 C 3.101562 20.25 3.375 19.546875 3.910156 19.011719 C 4.457031 18.464844 5.175781 18.191406 5.894531 18.191406 C 6.609375 18.191406 7.328125 18.464844 7.875 19.015625 C 8.285156 19.421875 8.542969 19.929688 8.644531 20.460938 L 15.519531 20.464844 C 15.660156 20.457031 15.804688 20.511719 15.910156 20.617188 L 80.140625 84.851562 L 95.8125 84.851562 C 95.949219 84.847656 96.09375 84.902344 96.199219 85.007812 L 107.257812 96.066406 C 107.960938 95.527344 108.808594 95.257812 109.652344 95.257812 C 110.667969 95.257812 111.679688 95.644531 112.453125 96.417969 C 113.226562 97.191406 113.613281 98.203125 113.613281 99.21875 C 113.613281 100.230469 113.226562 101.246094 112.453125 102.015625 C 111.679688 102.789062 110.667969 103.175781 109.652344 103.175781 C 108.640625 103.175781 107.625 102.789062 106.855469 102.019531 Z M 106.757812 99.21875 C 106.757812 99.957031 107.042969 100.695312 107.609375 101.261719 C 108.171875 101.828125 108.914062 102.113281 109.652344 102.113281 C 110.394531 102.113281 111.132812 101.828125 111.699219 101.261719 C 112.261719 100.695312 112.546875 99.957031 112.546875 99.21875 C 112.546875 98.476562 112.261719 97.738281 111.699219 97.175781 C 111.132812 96.609375 110.394531 96.324219 109.652344 96.324219 C 108.914062 96.324219 108.179688 96.605469 107.617188 97.164062 L 107.597656 97.183594 C 107.039062 97.746094 106.761719 98.480469 106.757812 99.21875 Z M 140.738281 122.785156 C 140.738281 123.519531 141.019531 124.253906 141.574219 124.820312 L 141.585938 124.828125 L 141.59375 124.839844 C 142.160156 125.398438 142.894531 125.675781 143.628906 125.675781 C 144.371094 125.675781 145.113281 125.394531 145.675781 124.832031 C 146.242188 124.265625 146.523438 123.523438 146.523438 122.785156 C 146.523438 122.042969 146.242188 121.300781 145.675781 120.738281 C 145.113281 120.175781 144.371094 119.890625 143.628906 119.890625 C 142.890625 119.890625 142.148438 120.175781 141.585938 120.738281 C 141.019531 121.300781 140.738281 122.042969 140.738281 122.785156 Z M 116.660156 144.203125 C 116.554688 144.097656 116.5 143.957031 116.503906 143.8125 L 116.503906 117.976562 C 116.503906 117.828125 116.566406 117.695312 116.660156 117.597656 L 124.632812 109.625 L 124.632812 95.253906 L 100.847656 71.472656 L 88.378906 71.472656 C 88.230469 71.472656 88.097656 71.414062 87.996094 71.316406 L 47.707031 31.023438 C 47.238281 31.34375 46.691406 31.503906 46.140625 31.503906 L 46.136719 31.503906 C 45.417969 31.503906 44.703125 31.226562 44.15625 30.683594 C 43.609375 30.132812 43.335938 29.417969 43.335938 28.703125 L 43.335938 28.65625 C 43.347656 27.953125 43.621094 27.253906 44.15625 26.71875 C 44.703125 26.167969 45.417969 25.898438 46.140625 25.898438 C 46.859375 25.898438 47.574219 26.167969 48.121094 26.71875 C 48.667969 27.261719 48.941406 27.980469 48.941406 28.699219 L 48.941406 28.703125 C 48.941406 29.25 48.78125 29.796875 48.460938 30.269531 L 88.597656 70.40625 L 101.058594 70.40625 C 101.199219 70.398438 101.34375 70.453125 101.449219 70.558594 L 125.542969 94.65625 C 125.640625 94.753906 125.699219 94.886719 125.699219 95.03125 L 125.699219 109.835938 C 125.703125 109.976562 125.652344 110.117188 125.542969 110.226562 L 117.570312 118.199219 L 117.574219 143.605469 L 134.757812 160.789062 C 134.964844 160.996094 134.964844 161.335938 134.757812 161.542969 C 134.546875 161.753906 134.207031 161.75 134 161.542969 Z M 75.65625 102.632812 C 75.65625 103.375 75.9375 104.113281 76.503906 104.679688 C 77.066406 105.242188 77.808594 105.527344 78.550781 105.523438 C 79.289062 105.523438 80.027344 105.242188 80.59375 104.675781 C 81.03125 104.234375 81.300781 103.691406 81.398438 103.125 L 81.398438 103.117188 C 81.429688 102.957031 81.4375 102.792969 81.441406 102.632812 C 81.441406 101.890625 81.15625 101.152344 80.59375 100.589844 C 80.027344 100.023438 79.289062 99.738281 78.550781 99.738281 C 77.808594 99.738281 77.074219 100.019531 76.511719 100.578125 L 76.492188 100.597656 C 75.933594 101.160156 75.65625 101.894531 75.65625 102.632812 Z M 76.503906 100.585938 Z M 76.503906 100.585938 " fill-opacity="1" fill-rule="nonzero"/></g></g></g><g clip-path="url(#cc24da7a89)"><path fill="#000000" d="M 49.644531 37.945312 L 88.191406 37.945312 L 88.191406 108.089844 L 133.550781 153.460938 L 249.015625 37.945312 L 341.152344 37.945312 L 341.152344 76.492188 L 264.964844 76.492188 L 49.644531 291.804688 L 49.644531 237.367188 L 106.3125 180.699219 L 49.644531 124.03125 Z M 49.644531 37.945312 " fill-opacity="1" fill-rule="nonzero"/></g><path fill="#000000" d="M 341.160156 117.898438 L 341.160156 156.296875 L 303.203125 156.296875 L 171.554688 288.046875 L 302.613281 288.046875 L 302.613281 241.519531 L 272.953125 241.519531 L 311.511719 202.972656 L 341.160156 202.972656 L 341.160156 326.445312 L 78.621094 326.445312 L 287.253906 117.898438 Z M 341.160156 117.898438 " fill-opacity="1" fill-rule="nonzero"/><g fill="#ff66c4" fill-opacity="1"><g transform="translate(87.556682, 297.638796)"><g><path d="M 4.15625 -4.1875 L 1.78125 -6.609375 L 9.65625 -14.5625 L 7.0625 -17.125 L -1.25 -8.734375 L -6.046875 -8.71875 L -11.03125 -13.65625 L -8.640625 -16.0625 L -3.65625 -11.125 L 4.65625 -19.515625 L -0.328125 -24.453125 L 2.078125 -26.875 L 12.0625 -16.984375 L 12.0625 -12.171875 Z M 4.15625 -4.1875 "/></g></g></g><g fill="#000000" fill-opacity="1"><g transform="translate(103.381676, 281.677426)"><g><path d="M 3.75 -3.78125 L -1.046875 -3.765625 L -8.625 -11.28125 L -8.640625 -16.0625 L -0.328125 -24.453125 L 4.484375 -24.5 L 12.0625 -16.984375 L 12.0625 -12.171875 Z M 1.34375 -6.171875 L 9.65625 -14.5625 L 2.078125 -22.078125 L -6.234375 -13.6875 Z M 1.34375 -6.171875 "/></g></g></g><g fill="#000000" fill-opacity="1"><g transform="translate(119.201127, 265.721647)"><g><path d="M 1.359375 -1.375 L -11.03125 -13.65625 L -8.640625 -16.0625 L -3.65625 -11.125 L 4.65625 -19.515625 L -0.328125 -24.453125 L 2.078125 -26.875 L 14.46875 -14.59375 L 12.0625 -12.171875 L 7.0625 -17.125 L -1.25 -8.734375 L 3.75 -3.78125 Z M 1.359375 -1.375 "/></g></g></g><g fill="#000000" fill-opacity="1"><g transform="translate(135.020578, 249.765869)"><g><path d="M 1.359375 -1.375 L -8.625 -11.28125 L -8.640625 -16.0625 L -0.328125 -24.453125 L 4.484375 -24.5 L 14.46875 -14.59375 L 12.0625 -12.171875 L 7.0625 -17.125 L -1.25 -8.734375 L 3.75 -3.78125 Z M -3.65625 -11.125 L 4.65625 -19.515625 L 2.078125 -22.078125 L -6.234375 -13.6875 Z M -3.65625 -11.125 "/></g></g></g><g fill="#000000" fill-opacity="1"><g transform="translate(150.840029, 233.81009)"><g><path d="M 1.359375 -1.375 L -8.625 -11.28125 L -8.640625 -16.0625 L -0.328125 -24.453125 L 4.484375 -24.5 L 14.46875 -14.59375 L 12.0625 -12.171875 L 2.078125 -22.078125 L -6.234375 -13.6875 L 3.75 -3.78125 Z M 1.359375 -1.375 "/></g></g></g><g fill="#000000" fill-opacity="1"><g transform="translate(166.659479, 217.854312)"><g><path d="M 1.359375 -1.375 L -8.625 -11.28125 L -8.640625 -16.0625 L -0.328125 -24.453125 L 4.484375 -24.5 L 14.46875 -14.59375 L 12.0625 -12.171875 L 2.078125 -22.078125 L -6.234375 -13.6875 L 3.75 -3.78125 Z M 1.359375 -1.375 "/></g></g></g><g fill="#000000" fill-opacity="1"><g transform="translate(182.47893, 201.898533)"><g><path d="M 1.359375 -1.375 L -8.625 -11.28125 L -8.640625 -16.0625 L -0.328125 -24.453125 L 4.484375 -24.5 L 14.46875 -14.59375 L 12.0625 -12.171875 L 7.0625 -17.125 L -1.25 -8.734375 L 3.75 -3.78125 Z M -3.65625 -11.125 L 4.65625 -19.515625 L 2.078125 -22.078125 L -6.234375 -13.6875 Z M -3.65625 -11.125 "/></g></g></g><g fill="#000000" fill-opacity="1"><g transform="translate(198.298381, 185.942754)"><g/></g></g><g fill="#ff66c4" fill-opacity="1"><g transform="translate(208.958645, 175.190623)"><g><path d="M 8.546875 1.015625 L 6.15625 -1.390625 L 14.0625 -9.359375 L 11.65625 -11.75 L 3.75 -3.78125 L -1.046875 -3.765625 L -8.625 -11.28125 L -8.640625 -16.0625 L -0.734375 -24.03125 L 4.046875 -24.0625 L 16.4375 -11.765625 L 16.46875 -6.96875 Z M 1.34375 -6.171875 L 9.25 -14.140625 L 1.671875 -21.65625 L -6.234375 -13.6875 Z M 1.34375 -6.171875 "/></g></g></g><g fill="#000000" fill-opacity="1"><g transform="translate(224.354599, 159.661991)"><g><path d="M 3.75 -3.78125 L -1.046875 -3.765625 L -8.625 -11.28125 L -8.640625 -16.0625 L 2.03125 -26.828125 L 4.4375 -24.453125 L -6.234375 -13.6875 L -3.65625 -11.125 L 4.25 -19.09375 L 6.65625 -16.703125 L -1.25 -8.734375 L 1.34375 -6.171875 L 12.015625 -16.9375 L 14.421875 -14.546875 Z M 3.75 -3.78125 "/></g></g></g><g fill="#000000" fill-opacity="1"><g transform="translate(240.13141, 143.74922)"><g><path d="M 3.75 -3.78125 L -1.046875 -3.765625 L -11.03125 -13.65625 L -8.640625 -16.0625 L 1.34375 -6.171875 L 9.03125 -13.921875 L 11.4375 -11.53125 Z M 3.75 -3.78125 "/></g></g></g><g fill="#000000" fill-opacity="1"><g transform="translate(252.923413, 130.846979)"><g><path d="M 3.75 -3.78125 L -1.046875 -3.765625 L -8.625 -11.28125 L -8.640625 -16.0625 L -0.328125 -24.453125 L 4.484375 -24.5 L 12.0625 -16.984375 L 12.0625 -12.171875 Z M 1.34375 -6.171875 L 9.65625 -14.5625 L 2.078125 -22.078125 L -6.234375 -13.6875 Z M 1.34375 -6.171875 "/></g></g></g><path fill="#ff66c4" d="M 339.375 98.554688 C 339.375 98.769531 339.335938 98.976562 339.25 99.175781 C 339.167969 99.375 339.050781 99.550781 338.898438 99.703125 C 338.746094 99.855469 338.570312 99.972656 338.371094 100.054688 C 338.171875 100.136719 337.964844 100.179688 337.75 100.179688 C 337.535156 100.179688 337.324219 100.136719 337.125 100.054688 C 336.925781 99.972656 336.75 99.855469 336.597656 99.703125 C 336.445312 99.550781 336.328125 99.375 336.246094 99.175781 C 336.164062 98.976562 336.121094 98.769531 336.121094 98.554688 C 336.121094 98.335938 336.164062 98.128906 336.246094 97.929688 C 336.328125 97.730469 336.445312 97.554688 336.597656 97.402344 C 336.75 97.25 336.925781 97.132812 337.125 97.050781 C 337.324219 96.96875 337.535156 96.925781 337.75 96.925781 C 337.964844 96.925781 338.171875 96.96875 338.371094 97.050781 C 338.570312 97.132812 338.746094 97.25 338.898438 97.402344 C 339.050781 97.554688 339.167969 97.730469 339.25 97.929688 C 339.335938 98.128906 339.375 98.335938 339.375 98.554688 Z M 339.375 98.554688 " fill-opacity="1" fill-rule="nonzero"/><path fill="#ff66c4" d="M 337.65625 98.960938 L 275.097656 98.613281 L 337.65625 98.265625 Z M 337.65625 98.960938 " fill-opacity="1" fill-rule="nonzero"/><path fill="#ff66c4" d="M 366.789062 94.460938 C 366.789062 94.785156 366.726562 95.097656 366.601562 95.398438 C 366.476562 95.695312 366.300781 95.960938 366.070312 96.191406 C 365.839844 96.421875 365.578125 96.597656 365.277344 96.722656 C 364.976562 96.847656 364.664062 96.910156 364.339844 96.910156 C 364.011719 96.910156 363.699219 96.847656 363.402344 96.722656 C 363.101562 96.597656 362.835938 96.421875 362.605469 96.191406 C 362.375 95.960938 362.199219 95.695312 362.074219 95.398438 C 361.949219 95.097656 361.886719 94.785156 361.886719 94.460938 C 361.886719 94.132812 361.949219 93.820312 362.074219 93.519531 C 362.199219 93.222656 362.375 92.957031 362.605469 92.726562 C 362.835938 92.496094 363.101562 92.320312 363.402344 92.195312 C 363.699219 92.070312 364.011719 92.007812 364.339844 92.007812 C 364.664062 92.007812 364.976562 92.070312 365.277344 92.195312 C 365.578125 92.320312 365.839844 92.496094 366.070312 92.726562 C 366.300781 92.957031 366.476562 93.222656 366.601562 93.519531 C 366.726562 93.820312 366.789062 94.132812 366.789062 94.460938 Z M 366.789062 94.460938 " fill-opacity="1" fill-rule="nonzero"/><g clip-path="url(#199b28b049)"><path fill="#ff66c4" d="M 364.359375 94.804688 L 323.128906 94.65625 L 323.289062 94.589844 L 311.957031 106.347656 L 311.910156 106.398438 L 311.839844 106.398438 L 274.09375 106.234375 L 311.839844 106.074219 L 311.722656 106.125 L 322.96875 94.28125 L 323.035156 94.214844 L 323.128906 94.214844 L 364.359375 94.113281 Z M 364.359375 94.804688 " fill-opacity="1" fill-rule="nonzero"/></g><path fill="#ff66c4" d="M 366.789062 94.460938 C 366.789062 94.785156 366.726562 95.097656 366.601562 95.398438 C 366.476562 95.695312 366.300781 95.960938 366.070312 96.191406 C 365.839844 96.421875 365.578125 96.597656 365.277344 96.722656 C 364.976562 96.847656 364.664062 96.910156 364.339844 96.910156 C 364.011719 96.910156 363.699219 96.847656 363.402344 96.722656 C 363.101562 96.597656 362.835938 96.421875 362.605469 96.191406 C 362.375 95.960938 362.199219 95.695312 362.074219 95.398438 C 361.949219 95.097656 361.886719 94.785156 361.886719 94.460938 C 361.886719 94.132812 361.949219 93.820312 362.074219 93.519531 C 362.199219 93.222656 362.375 92.957031 362.605469 92.726562 C 362.835938 92.496094 363.101562 92.320312 363.402344 92.195312 C 363.699219 92.070312 364.011719 92.007812 364.339844 92.007812 C 364.664062 92.007812 364.976562 92.070312 365.277344 92.195312 C 365.578125 92.320312 365.839844 92.496094 366.070312 92.726562 C 366.300781 92.957031 366.476562 93.222656 366.601562 93.519531 C 366.726562 93.820312 366.789062 94.132812 366.789062 94.460938 Z M 366.789062 94.460938 " fill-opacity="1" fill-rule="nonzero"/><g clip-path="url(#4557937c99)"><path fill="#ff66c4" d="M 364.359375 94.804688 L 323.128906 94.65625 L 323.289062 94.589844 L 311.957031 106.347656 L 311.910156 106.398438 L 311.839844 106.398438 L 274.09375 106.234375 L 311.839844 106.074219 L 311.722656 106.125 L 322.96875 94.28125 L 323.035156 94.214844 L 323.128906 94.214844 L 364.359375 94.113281 Z M 364.359375 94.804688 " fill-opacity="1" fill-rule="nonzero"/></g><g clip-path="url(#16a3a102bb)"><path fill="#ff66c4" d="M 344.101562 90.585938 C 344.101562 90.914062 344.039062 91.226562 343.914062 91.523438 C 343.789062 91.824219 343.613281 92.089844 343.382812 92.320312 C 343.152344 92.550781 342.886719 92.726562 342.585938 92.851562 C 342.289062 92.976562 341.972656 93.039062 341.648438 93.039062 C 341.324219 93.039062 341.011719 92.976562 340.710938 92.851562 C 340.410156 92.726562 340.144531 92.550781 339.917969 92.320312 C 339.6875 92.089844 339.507812 91.824219 339.386719 91.523438 C 339.261719 91.226562 339.199219 90.914062 339.199219 90.585938 C 339.199219 90.261719 339.261719 89.949219 339.386719 89.648438 C 339.507812 89.347656 339.6875 89.085938 339.917969 88.855469 C 340.144531 88.625 340.410156 88.449219 340.710938 88.324219 C 341.011719 88.199219 341.324219 88.136719 341.648438 88.136719 C 341.972656 88.136719 342.289062 88.199219 342.585938 88.324219 C 342.886719 88.449219 343.152344 88.625 343.382812 88.855469 C 343.613281 89.085938 343.789062 89.347656 343.914062 89.648438 C 344.039062 89.949219 344.101562 90.261719 344.101562 90.585938 Z M 344.101562 90.585938 " fill-opacity="1" fill-rule="nonzero"/></g><g clip-path="url(#d57788d9ab)"><path fill="#ff66c4" d="M 341.226562 90.933594 L 335.257812 90.902344 L 332.273438 90.890625 L 330.78125 90.882812 L 330.433594 90.882812 C 330.429688 91.398438 330.460938 90.179688 330.4375 90.304688 L 330.441406 90.304688 L 330.808594 90.308594 L 331.554688 90.316406 L 332.300781 90.320312 L 332.679688 90.324219 L 332.699219 90.324219 C 332.730469 90.207031 332.691406 91.375 332.695312 90.878906 L 332.328125 90.878906 L 330.835938 90.875 L 321.882812 90.828125 L 322.042969 90.761719 L 310.707031 102.203125 L 310.660156 102.25 L 310.589844 102.25 L 274.371094 102.089844 L 310.59375 101.925781 L 310.476562 101.972656 L 321.726562 90.453125 L 321.789062 90.390625 L 321.882812 90.390625 L 327.851562 90.359375 L 330.835938 90.339844 L 332.328125 90.332031 L 332.675781 90.332031 C 332.679688 89.835938 332.648438 91.003906 332.671875 90.886719 L 330.410156 90.886719 C 330.378906 91.007812 330.417969 89.789062 330.417969 90.304688 L 330.78125 90.304688 L 332.273438 90.296875 L 335.257812 90.277344 L 341.226562 90.246094 Z M 341.226562 90.933594 " fill-opacity="1" fill-rule="nonzero"/></g><g clip-path="url(#398cb21aa6)"><g clip-path="url(#395849df56)"><g clip-path="url(#4dc9d631d0)"><path fill="#ff66c4" d="M 31.816406 339.773438 C 31.667969 339.617188 31.554688 339.4375 31.476562 339.238281 C 31.398438 339.035156 31.363281 338.828125 31.367188 338.613281 C 31.375 338.394531 31.421875 338.191406 31.507812 337.992188 C 31.597656 337.796875 31.71875 337.621094 31.875 337.472656 C 32.03125 337.324219 32.210938 337.210938 32.410156 337.136719 C 32.613281 337.058594 32.820312 337.023438 33.035156 337.027344 C 33.25 337.03125 33.457031 337.078125 33.65625 337.167969 C 33.851562 337.253906 34.023438 337.375 34.171875 337.53125 C 34.320312 337.6875 34.433594 337.867188 34.511719 338.070312 C 34.589844 338.269531 34.625 338.480469 34.621094 338.695312 C 34.613281 338.910156 34.570312 339.117188 34.480469 339.3125 C 34.394531 339.511719 34.269531 339.683594 34.113281 339.832031 C 33.957031 339.980469 33.78125 340.09375 33.578125 340.171875 C 33.378906 340.25 33.167969 340.285156 32.953125 340.277344 C 32.738281 340.273438 32.53125 340.226562 32.335938 340.140625 C 32.136719 340.050781 31.964844 339.929688 31.816406 339.773438 Z M 31.816406 339.773438 " fill-opacity="1" fill-rule="nonzero"/></g></g></g><g clip-path="url(#895006f4f9)"><g clip-path="url(#d9a5060737)"><g clip-path="url(#cba15ed5b1)"><path fill="#ff66c4" d="M 32.78125 338.292969 L 78.371094 295.453125 L 33.261719 338.796875 Z M 32.78125 338.292969 " fill-opacity="1" fill-rule="nonzero"/></g></g></g><g clip-path="url(#207ce9f2e8)"><g clip-path="url(#747059c668)"><g clip-path="url(#f793083f60)"><path fill="#ff66c4" d="M 14.761719 361.625 C 14.539062 361.386719 14.367188 361.117188 14.25 360.816406 C 14.132812 360.511719 14.082031 360.199219 14.089844 359.871094 C 14.097656 359.546875 14.167969 359.238281 14.300781 358.941406 C 14.429688 358.644531 14.613281 358.382812 14.851562 358.160156 C 15.085938 357.933594 15.355469 357.765625 15.660156 357.648438 C 15.960938 357.53125 16.277344 357.476562 16.601562 357.484375 C 16.925781 357.492188 17.238281 357.5625 17.535156 357.695312 C 17.832031 357.828125 18.089844 358.011719 18.316406 358.246094 C 18.539062 358.484375 18.710938 358.753906 18.824219 359.054688 C 18.941406 359.359375 18.996094 359.671875 18.988281 360 C 18.980469 360.324219 18.910156 360.632812 18.777344 360.929688 C 18.644531 361.226562 18.460938 361.488281 18.226562 361.710938 C 17.992188 361.9375 17.722656 362.105469 17.417969 362.222656 C 17.113281 362.339844 16.800781 362.394531 16.476562 362.386719 C 16.152344 362.378906 15.839844 362.308594 15.542969 362.175781 C 15.246094 362.042969 14.984375 361.859375 14.761719 361.625 Z M 14.761719 361.625 " fill-opacity="1" fill-rule="nonzero"/></g></g></g><g clip-path="url(#0b41fef211)"><g clip-path="url(#bf2f08d572)"><g clip-path="url(#68140d9cc0)"><path fill="#ff66c4" d="M 16.285156 359.699219 L 46.277344 331.40625 L 46.207031 331.566406 L 46.324219 315.238281 L 46.324219 315.167969 L 46.375 315.121094 L 73.847656 289.238281 L 46.597656 315.355469 L 46.648438 315.238281 L 46.648438 331.664062 L 46.582031 331.726562 L 16.761719 360.203125 Z M 16.285156 359.699219 " fill-opacity="1" fill-rule="nonzero"/></g></g></g><g clip-path="url(#caa157a6a0)"><g clip-path="url(#d011084b4d)"><g clip-path="url(#a9aeffcca1)"><path fill="#ff66c4" d="M 14.761719 361.625 C 14.539062 361.386719 14.367188 361.117188 14.25 360.816406 C 14.132812 360.511719 14.082031 360.199219 14.089844 359.871094 C 14.097656 359.546875 14.167969 359.238281 14.300781 358.941406 C 14.429688 358.644531 14.613281 358.382812 14.851562 358.160156 C 15.085938 357.933594 15.355469 357.765625 15.660156 357.648438 C 15.960938 357.53125 16.277344 357.476562 16.601562 357.484375 C 16.925781 357.492188 17.238281 357.5625 17.535156 357.695312 C 17.832031 357.828125 18.089844 358.011719 18.316406 358.246094 C 18.539062 358.484375 18.710938 358.753906 18.824219 359.054688 C 18.941406 359.359375 18.996094 359.671875 18.988281 360 C 18.980469 360.324219 18.910156 360.632812 18.777344 360.929688 C 18.644531 361.226562 18.460938 361.488281 18.226562 361.710938 C 17.992188 361.9375 17.722656 362.105469 17.417969 362.222656 C 17.113281 362.339844 16.800781 362.394531 16.476562 362.386719 C 16.152344 362.378906 15.839844 362.308594 15.542969 362.175781 C 15.246094 362.042969 14.984375 361.859375 14.761719 361.625 Z M 14.761719 361.625 " fill-opacity="1" fill-rule="nonzero"/></g></g></g><g clip-path="url(#80f66a5ff2)"><g clip-path="url(#34b1172fb6)"><g clip-path="url(#64c8cdf5b3)"><path fill="#ff66c4" d="M 16.285156 359.699219 L 46.277344 331.40625 L 46.207031 331.566406 L 46.324219 315.238281 L 46.324219 315.167969 L 46.375 315.121094 L 73.847656 289.238281 L 46.597656 315.355469 L 46.648438 315.238281 L 46.648438 331.664062 L 46.582031 331.726562 L 16.761719 360.203125 Z M 16.285156 359.699219 " fill-opacity="1" fill-rule="nonzero"/></g></g></g><g clip-path="url(#25b5c5260f)"><g clip-path="url(#29962a07ec)"><g clip-path="url(#574b692b42)"><path fill="#ff66c4" d="M 33.878906 348.800781 C 33.652344 348.566406 33.484375 348.296875 33.367188 347.992188 C 33.25 347.691406 33.195312 347.375 33.203125 347.050781 C 33.210938 346.726562 33.28125 346.414062 33.414062 346.117188 C 33.546875 345.820312 33.730469 345.5625 33.964844 345.335938 C 34.199219 345.113281 34.46875 344.941406 34.773438 344.828125 C 35.078125 344.710938 35.390625 344.65625 35.714844 344.664062 C 36.042969 344.671875 36.351562 344.742188 36.648438 344.875 C 36.945312 345.007812 37.207031 345.191406 37.429688 345.425781 C 37.652344 345.660156 37.824219 345.929688 37.941406 346.234375 C 38.058594 346.539062 38.113281 346.851562 38.105469 347.175781 C 38.09375 347.5 38.023438 347.8125 37.894531 348.109375 C 37.761719 348.40625 37.578125 348.667969 37.339844 348.890625 C 37.105469 349.113281 36.835938 349.285156 36.535156 349.402344 C 36.230469 349.519531 35.914062 349.574219 35.589844 349.5625 C 35.265625 349.554688 34.957031 349.484375 34.660156 349.355469 C 34.359375 349.222656 34.101562 349.039062 33.878906 348.800781 Z M 33.878906 348.800781 " fill-opacity="1" fill-rule="nonzero"/></g></g></g><g clip-path="url(#8a890dd382)"><g clip-path="url(#13a8399bde)"><g clip-path="url(#0ef3e31fa6)"><path fill="#ff66c4" d="M 35.722656 346.570312 L 40.070312 342.480469 L 42.242188 340.4375 L 43.328125 339.414062 L 43.578125 339.175781 C 43.226562 338.796875 44.042969 339.703125 43.976562 339.597656 L 43.972656 339.597656 L 43.703125 339.851562 L 43.160156 340.359375 L 42.613281 340.867188 L 42.335938 341.125 L 42.324219 341.136719 C 42.382812 341.246094 41.605469 340.371094 41.945312 340.734375 L 42.207031 340.484375 L 43.292969 339.457031 L 45.46875 337.414062 L 49.816406 333.324219 L 49.746094 333.480469 L 50.085938 317.382812 L 50.085938 317.3125 L 50.136719 317.265625 L 76.503906 292.433594 L 50.359375 317.503906 L 50.410156 317.386719 L 50.1875 333.488281 L 50.1875 333.578125 L 50.121094 333.644531 L 43.664062 339.84375 L 42.589844 340.878906 L 42.453125 341.007812 L 42.386719 341.070312 L 42.355469 341.101562 L 42.335938 341.117188 C 42.675781 341.480469 41.890625 340.609375 41.957031 340.714844 L 42.226562 340.457031 L 42.769531 339.945312 L 43.308594 339.429688 L 43.597656 339.15625 C 43.535156 339.042969 44.347656 339.957031 43.992188 339.582031 L 43.964844 339.605469 L 43.929688 339.636719 L 43.863281 339.703125 L 43.726562 339.832031 L 42.652344 340.867188 L 40.5 342.933594 L 36.195312 347.070312 Z M 35.722656 346.570312 " fill-opacity="1" fill-rule="nonzero"/></g></g></g></svg>